<?xml version="1.0" standalone="no"?>
<!DOCTYPE svg PUBLIC "-//W3C//DTD SVG 20010904//EN"
 "http://www.w3.org/TR/2001/REC-SVG-20010904/DTD/svg10.dtd">
<svg version="1.0" xmlns="http://www.w3.org/2000/svg"
 width="1024.000000pt" height="1024.000000pt" viewBox="0 0 1024.000000 1024.000000"
 preserveAspectRatio="xMidYMid meet">
<metadata>
Created by potrace 1.14, written by Peter Selinger 2001-2017
</metadata>
<g transform="translate(0.000000,1024.000000) scale(0.100000,-0.100000)"
fill="#000000" stroke="none">
<path d="M5775 7525 c-69 -15 -114 -33 -182 -73 -26 -16 -61 -33 -78 -39 -16
-6 -118 -47 -225 -92 -107 -45 -231 -98 -275 -116 -44 -19 -111 -47 -150 -64
-38 -16 -180 -74 -315 -129 -366 -149 -711 -291 -745 -306 -41 -19 -106 -46
-130 -56 -200 -80 -211 -94 -215 -270 -2 -90 -2 -787 -1 -830 1 -8 11 -26 24
-40 17 -20 31 -26 62 -25 55 0 71 12 51 34 -19 21 -18 -19 -17 478 l1 412 33
15 c63 28 67 28 68 -2 0 -15 1 -190 2 -389 2 -346 3 -363 22 -376 21 -16 44
-8 64 25 8 13 12 129 13 412 l1 393 49 18 c27 9 51 15 54 12 4 -4 6 -293 3
-507 0 -14 1 -127 1 -252 0 -137 -3 -235 -9 -247 -9 -16 -7 -20 12 -24 35 -8
584 -3 593 5 4 5 -1 17 -11 28 -19 21 -19 28 -16 505 1 77 1 259 0 405 0 146
0 275 0 287 1 16 12 25 48 37 25 9 49 14 51 11 3 -3 6 -240 7 -528 1 -287 5
-531 9 -543 7 -23 47 -46 63 -36 36 24 37 46 38 604 0 346 4 551 10 557 11 10
98 41 103 36 1 -1 3 -138 4 -303 2 -243 -1 -303 -12 -317 -11 -14 -11 -18 0
-25 10 -6 13 -75 15 -342 1 -194 -3 -338 -8 -345 -6 -8 -5 -18 1 -26 9 -10 77
-13 324 -12 172 1 318 3 323 4 6 0 -4 9 -21 20 -16 10 -60 49 -97 86 -76 77
-130 176 -148 271 -10 55 -8 233 6 376 4 43 2 60 -10 72 -16 16 -25 15 -127
-11 -53 -14 -70 -15 -80 -5 -15 15 -17 607 -2 622 5 5 43 20 84 33 41 14 92
32 113 41 20 9 37 13 37 10 0 -4 6 -2 13 4 14 11 117 42 140 42 15 0 16 -31 2
-130 -2 -19 -7 -64 -10 -100 -3 -36 -8 -85 -10 -110 -5 -47 -10 -104 -20 -260
-3 -52 -8 -108 -10 -125 -28 -220 -27 -389 4 -478 54 -160 202 -300 366 -345
77 -22 922 -18 1008 4 197 51 348 214 385 415 10 51 8 163 -2 219 -15 80 -57
326 -67 390 -5 41 -12 86 -14 100 -2 14 -6 39 -9 55 -34 198 -56 329 -61 370
-25 212 -180 397 -385 460 -46 15 -106 18 -370 20 -227 2 -332 -1 -375 -10z
m759 -269 c45 -19 101 -70 120 -110 14 -30 26 -77 41 -166 2 -14 11 -68 20
-120 20 -111 20 -109 40 -263 9 -65 13 -126 10 -136 -5 -17 -42 -18 -620 -18
-589 0 -615 1 -621 19 -3 10 -3 31 0 46 3 15 8 47 10 72 3 25 8 74 11 110 4
36 8 76 10 90 2 14 6 61 10 105 21 258 42 307 152 361 48 23 51 23 416 24 290
0 375 -3 401 -14z m-2236 -866 l-3 -263 -40 -12 c-40 -12 -118 -31 -164 -40
-14 -2 -29 -1 -35 4 -7 6 -10 89 -9 251 1 221 3 243 20 256 10 7 25 14 33 14
8 1 53 16 100 35 47 18 88 30 93 26 4 -4 6 -126 5 -271z m1489 -249 c112 -51
134 -207 41 -292 -113 -105 -286 -43 -303 108 -16 146 126 245 262 184z m950
0 c104 -48 133 -199 54 -284 -91 -99 -240 -77 -301 44 -23 44 -24 63 -9 126
12 47 62 107 103 123 36 15 109 10 153 -9z"/>
<path d="M3155 6444 c-55 -24 -113 -51 -130 -58 -16 -8 -95 -42 -175 -76 -80
-34 -167 -72 -195 -85 -27 -12 -99 -44 -160 -70 -60 -25 -123 -53 -140 -60
-98 -44 -221 -97 -230 -99 -16 -5 -60 -23 -129 -56 -36 -16 -68 -30 -71 -30
-3 0 -33 -13 -67 -28 -35 -16 -87 -39 -115 -52 -67 -30 -87 -51 -79 -85 8 -33
40 -33 131 1 39 15 86 32 105 39 19 8 56 23 83 34 26 11 48 20 50 20 6 -1 338
124 532 200 83 33 188 73 235 91 47 17 99 37 115 44 17 7 75 30 130 51 55 20
115 44 134 51 18 8 36 12 40 9 7 -8 12 -512 5 -538 -3 -9 -15 -22 -26 -28 -22
-12 -114 -35 -171 -44 -17 -2 -50 -9 -72 -14 -22 -5 -58 -13 -80 -16 -71 -12
-80 -14 -100 -19 -34 -8 -159 -35 -190 -40 -16 -3 -51 -10 -79 -16 -28 -5 -68
-12 -88 -14 -65 -8 -112 -18 -130 -28 -21 -10 -24 -37 -5 -40 30 -3 993 -4
1007 -1 8 3 23 16 34 29 17 24 18 53 18 475 0 398 -2 452 -16 474 -23 35 -54
31 -171 -21z"/>
<path d="M1783 5309 c-59 -4 -96 -11 -105 -20 -34 -34 -46 -65 -44 -112 1 -39
8 -53 34 -80 l32 -32 3472 -2 c3763 -2 3507 -5 3542 50 37 58 16 145 -44 181
-29 17 -185 17 -3413 19 -1860 1 -3423 -1 -3474 -4z"/>
<path d="M1710 4789 c-14 -5 -33 -20 -42 -32 -16 -20 -18 -75 -18 -730 0 -502
3 -715 11 -730 26 -51 45 -57 186 -57 123 0 134 2 158 23 17 14 29 37 33 62 4
22 7 192 7 377 0 186 3 338 6 338 4 0 60 -62 125 -137 66 -75 157 -180 203
-232 46 -53 142 -162 213 -243 71 -81 140 -156 155 -167 22 -18 40 -21 138
-21 127 0 156 12 173 73 5 18 9 341 8 718 -1 645 -2 686 -19 713 -29 44 -68
54 -199 52 -114 -1 -119 -2 -145 -29 l-28 -27 -5 -373 -5 -372 -35 39 c-19 21
-40 44 -45 50 -31 33 -308 354 -422 487 -72 85 -148 170 -168 189 l-36 35
-112 2 c-62 2 -123 -2 -137 -8z"/>
<path d="M3771 4783 c-42 -22 -50 -36 -129 -228 -33 -82 -107 -260 -162 -395
-213 -514 -307 -746 -314 -774 -10 -39 10 -91 46 -121 31 -26 33 -26 164 -23
161 4 163 5 225 149 l42 99 244 0 244 0 20 -47 c86 -202 87 -203 269 -203
l132 0 34 34 c26 26 34 43 34 69 0 34 -116 326 -395 992 -146 350 -176 415
-204 440 -33 29 -200 34 -250 8z m180 -816 l56 -132 -51 -5 c-28 -3 -81 -4
-118 -2 l-67 4 13 31 c8 18 33 80 57 139 24 59 45 105 48 102 4 -3 31 -65 62
-137z"/>
<path d="M4583 4785 c-43 -18 -53 -49 -56 -173 -5 -193 8 -205 232 -212 l156
-5 1 -505 c2 -652 -2 -586 33 -621 l29 -29 132 0 132 0 34 34 34 34 1 523 c1
288 0 534 -1 547 -1 22 -1 22 153 22 141 0 157 2 181 21 46 36 56 69 56 183 0
122 -8 149 -51 175 -30 18 -55 19 -535 18 -360 0 -511 -4 -531 -12z"/>
<path d="M5883 4790 c-13 -5 -32 -24 -43 -42 -20 -32 -20 -47 -18 -741 l3
-709 33 -29 c32 -29 32 -29 166 -29 l134 0 31 29 c17 16 32 37 32 48 2 35 7
278 8 386 l1 107 285 0 285 0 0 -235 c0 -333 1 -335 197 -335 140 0 165 7 193
52 19 32 20 51 20 725 0 425 -4 702 -10 717 -5 14 -24 35 -42 47 -30 18 -45
20 -163 16 -158 -4 -176 -12 -190 -86 -2 -9 -4 -123 -4 -253 l-1 -238 -285 0
-285 0 0 83 c-1 45 -1 153 -1 240 1 241 -12 257 -211 256 -62 0 -123 -4 -135
-9z"/>
<path d="M7371 4786 c-29 -16 -50 -52 -51 -86 0 -14 23 -61 51 -105 29 -44
104 -163 167 -265 63 -102 141 -223 172 -270 31 -47 71 -110 89 -141 l31 -56
0 -272 c0 -181 4 -280 11 -294 26 -51 45 -57 184 -57 207 0 205 -4 205 360 l0
260 176 283 c97 155 185 296 195 313 9 18 42 70 73 115 62 95 71 123 49 167
-25 52 -60 61 -225 59 -191 -3 -160 21 -339 -274 -67 -112 -125 -203 -128
-203 -3 0 -24 31 -45 68 -87 150 -199 323 -235 364 l-39 43 -158 2 c-114 1
-166 -2 -183 -11z"/>
<path d="M1710 2966 c-90 -39 -104 -172 -25 -234 l27 -21 3457 -1 c2389 0
3467 3 3488 10 101 35 105 190 7 240 -26 13 -440 15 -3479 16 -2450 0 -3458
-3 -3475 -10z"/>
</g>
</svg>
